<svg xmlns="http://www.w3.org/2000/svg" version="1.1" xmlns:xlink="http://www.w3.org/1999/xlink" xmlns:svgjs="http://svgjs.dev/svgjs" width="2000" height="1500" viewBox="0 0 2000 1500"><rect width="2000" height="1500" fill="#ffffff"></rect><g transform="matrix(0.75,0,0,0.75,249.090909090909,282.7536437246963)"><svg viewBox="0 0 396 247" data-background-color="#ffffff" preserveAspectRatio="xMidYMid meet" height="1247" width="2000" xmlns="http://www.w3.org/2000/svg" xmlns:xlink="http://www.w3.org/1999/xlink"><g id="tight-bounds" transform="matrix(1,0,0,1,0.2400000000000091,-0.09999999999999432)"><svg viewBox="0 0 395.52 247.2" height="247.2" width="395.52"><rect width="395.5199890136719" height="247.1999969482422" fill="url(#8c73c449-46b6-415c-a118-384e89125c85)" mask="url(#3ee7a697-e87d-491b-b7fb-301b341f6cda)" data-fill-palette-color="tertiary"></rect><g><svg></svg></g><g><svg viewBox="0 0 395.52 247.2" height="247.2" width="395.52"><g><path xmlns="http://www.w3.org/2000/svg" d="M55.039 247.2l81.725-141.551v95.819h121.992v-95.819l81.725 141.551zM197.76 0l26.403 45.732-52.806 0z" fill="url(#8c73c449-46b6-415c-a118-384e89125c85)" fill-rule="nonzero" stroke="none" stroke-width="1" stroke-linecap="butt" stroke-linejoin="miter" stroke-miterlimit="10" stroke-dasharray="" stroke-dashoffset="0" font-family="none" font-weight="none" font-size="none" text-anchor="none" style="mix-blend-mode: normal" data-fill-palette-color="tertiary"></path></g><g transform="matrix(1,0,0,1,159.01166908563135,67.97999999999999)"><svg viewBox="0 0 77.49666182873729 111.24" height="111.24" width="77.49666182873729"><g><svg viewBox="0 0 77.49666182873729 111.24" height="111.24" width="77.49666182873729"><g><svg viewBox="0 0 77.49666182873729 111.24" height="111.24" width="77.49666182873729"><g><svg viewBox="0 0 77.49666182873729 111.24" height="111.24" width="77.49666182873729"><g id="textblocktransform"><svg viewBox="0 0 77.49666182873729 111.24" height="111.24" width="77.49666182873729" id="textblock"><g><svg viewBox="0 0 77.49666182873729 111.24" height="111.24" width="77.49666182873729"><g transform="matrix(1,0,0,1,0,0)"><svg width="77.49666182873729" viewBox="5 -34.45000076293945 24 34.45000076293945" height="111.24" data-palette-color="#ff851b"><path d="M29 0L24.25 0 24.25-16.15 9.75-16.15 9.75 0 5 0 5-34.45 9.75-34.45 9.75-20.05 24.25-20.05 24.25-34.45 29-34.45 29 0Z" opacity="1" transform="matrix(1,0,0,1,0,0)" fill="#ff851b" class="wordmark-text-0" data-fill-palette-color="primary" id="text-0"></path></svg></g></svg></g></svg></g></svg></g><g></g></svg></g></svg></g></svg></g></svg></g><defs></defs><mask id="3ee7a697-e87d-491b-b7fb-301b341f6cda"><g id="SvgjsG1132"><svg viewBox="0 0 395.52 247.2" height="247.2" width="395.52"><g><svg></svg></g><g><svg viewBox="0 0 395.52 247.2" height="247.2" width="395.52"><g><path xmlns="http://www.w3.org/2000/svg" d="M55.039 247.2l81.725-141.551v95.819h121.992v-95.819l81.725 141.551zM197.76 0l26.403 45.732-52.806 0z" fill="white" fill-rule="nonzero" stroke="none" stroke-width="1" stroke-linecap="butt" stroke-linejoin="miter" stroke-miterlimit="10" stroke-dasharray="" stroke-dashoffset="0" font-family="none" font-weight="none" font-size="none" text-anchor="none" style="mix-blend-mode: normal"></path></g><g transform="matrix(1,0,0,1,159.01166908563135,67.97999999999999)"><svg viewBox="0 0 77.49666182873729 111.24" height="111.24" width="77.49666182873729"><g><svg viewBox="0 0 77.49666182873729 111.24" height="111.24" width="77.49666182873729"><g><svg viewBox="0 0 77.49666182873729 111.24" height="111.24" width="77.49666182873729"><g><svg viewBox="0 0 77.49666182873729 111.24" height="111.24" width="77.49666182873729"><g id="SvgjsG1131"><svg viewBox="0 0 77.49666182873729 111.24" height="111.24" width="77.49666182873729" id="SvgjsSvg1130"><g><svg viewBox="0 0 77.49666182873729 111.24" height="111.24" width="77.49666182873729"><g transform="matrix(1,0,0,1,0,0)"><svg width="77.49666182873729" viewBox="5 -34.45000076293945 24 34.45000076293945" height="111.24" data-palette-color="#ff851b"></svg></g></svg></g></svg></g></svg></g><g></g></svg></g></svg></g></svg></g></svg></g><defs><mask></mask></defs></svg></g></mask><linearGradient x1="0" x2="1" y1="0.5" y2="0.5" id="8c73c449-46b6-415c-a118-384e89125c85"><stop stop-color="#ffa62e" offset="0"></stop><stop stop-color="#f71b3d" offset="1"></stop></linearGradient></svg><rect width="395.52" height="247.2" fill="none" stroke="none" visibility="hidden"></rect></g></svg></g></svg>